<?xml version="1.0" encoding="UTF-8"?>
<svg xmlns="http://www.w3.org/2000/svg" width="128" height="128" viewBox="0 0 128 128">
  <title>JMeter2</title>
  <defs>
    <clipPath id="r">
      <rect width="128" height="128" rx="24"/>
    </clipPath>
  </defs>
  <g clip-path="url(#r)">
    <rect width="56" height="128" fill="#FFFFFF"/>
    <rect x="56" width="8" height="128" fill="#D11123"/>
    <rect x="64" width="64" height="128" fill="#14181C"/>
    <ellipse cx="28" cy="118" rx="18" ry="3" fill="#B8D4E8"/>
    <rect x="16" y="78" width="8" height="28" rx="4" fill="#111111"/>
    <rect x="26" y="80" width="7" height="26" rx="3.5" fill="#111111"/>
    <rect x="34" y="80" width="7" height="26" rx="3.5" fill="#111111"/>
    <rect x="14" y="52" width="28" height="30" rx="8" fill="#111111"/>
    <rect x="18" y="70" width="20" height="6" rx="3" fill="#D11123"/>
    <ellipse cx="28" cy="42" rx="16" ry="14" fill="#111111"/>
    <rect x="8" y="44" width="10" height="26" rx="5" fill="#111111"/>
    <rect x="38" y="44" width="10" height="26" rx="5" fill="#111111"/>
    <rect x="26" y="16" width="4" height="14" rx="2" fill="#111111"/>
    <circle cx="28" cy="15" r="4" fill="#D11123"/>
    <rect x="18" y="36" width="20" height="8" rx="4" fill="#14181C"/>
    <circle cx="23" cy="40" r="2.2" fill="#D11123"/>
    <circle cx="33" cy="40" r="2.2" fill="#D11123"/>
    <ellipse cx="28" cy="48" rx="7" ry="4.5" fill="#EDE6DC"/>
    <text x="96" y="88" text-anchor="middle"
          font-family="Segoe UI, Helvetica Neue, Arial, sans-serif"
          font-size="58" font-weight="700" fill="#D11123">2</text>
  </g>
</svg>
